<svg width="16" height="16" viewBox="0 0 16 16" fill="none" xmlns="http://www.w3.org/2000/svg">
<path d="M3.64657 5.99992C4.93523 5.99992 5.9799 4.95525 5.9799 3.66659C5.9799 2.37792 4.93523 1.33325 3.64657 1.33325C2.3579 1.33325 1.31323 2.37792 1.31323 3.66659C1.31323 4.95525 2.3579 5.99992 3.64657 5.99992Z" stroke="black"/>
<path d="M11.3133 10H13.3133C14.0466 10 14.6466 10.6 14.6466 11.3333V13.3333C14.6466 14.0667 14.0466 14.6667 13.3133 14.6667H11.3133C10.58 14.6667 9.97998 14.0667 9.97998 13.3333V11.3333C9.97998 10.6 10.58 10 11.3133 10Z" stroke="black"/>
<path d="M8.00013 3.33325H9.78679C11.0201 3.33325 11.5935 4.85992 10.6668 5.67325L5.34013 10.3333C4.41346 11.1399 4.98679 12.6666 6.21346 12.6666H8.00013" stroke="black" stroke-linecap="round" stroke-linejoin="round"/>
<path d="M3.65748 3.66659H3.66518" stroke="black" stroke-linecap="round" stroke-linejoin="round"/>
<path d="M12.3242 12.3333H12.3319" stroke="black" stroke-linecap="round" stroke-linejoin="round"/>
</svg>
