<svg width="68" height="48" viewBox="0 0 68 48" fill="none" xmlns="http://www.w3.org/2000/svg">
<path d="M3.22045 14.245C3.62688 8.708 7.7205 4.1925 13.2729 4.1925C18.8254 4.1925 23.3254 8.69255 23.3254 14.245C23.3254 23.4584 13.2729 30.2533 13.2729 30.2533C13.2729 30.2533 2.59149 22.8186 3.22045 14.245Z" fill="#00B6BE"/>
<path d="M40.6504 30.5792C41.0568 25.0423 45.1504 20.5267 50.7029 20.5267C56.2553 20.5267 60.7554 25.0268 60.7554 30.5792C60.7554 39.7926 50.7029 46.5875 50.7029 46.5875C50.7029 46.5875 40.0214 39.1513 40.6504 30.5792Z" fill="#FAA719"/>
<path d="M15.3902 28.0481C15.1908 28.0481 14.993 27.9878 14.823 27.8704C14.3687 27.5536 3.6857 20.0061 4.34711 10.9735C4.80608 4.71794 9.55339 0 15.3902 0C21.4804 0 26.4363 4.95593 26.4363 11.0462C26.4363 15.0579 24.6128 19.2489 21.162 23.1617C18.5952 26.0747 16.0547 27.8055 15.9465 27.8781C15.7781 27.9909 15.5833 28.0481 15.3902 28.0481ZM6.32825 11.1172C5.8291 17.9245 13.2622 24.1739 15.3948 25.8181C17.4517 24.2527 24.4475 18.3881 24.4475 11.0446C24.4475 6.05004 20.3832 1.98577 15.3886 1.98577C10.6058 1.98732 6.70995 5.91251 6.32825 11.1172Z" fill="#201F3B"/>
<path d="M15.3763 15.2156C17.5458 15.2156 19.3046 13.4568 19.3046 11.2873C19.3046 9.11776 17.5458 7.35901 15.3763 7.35901C13.2067 7.35901 11.448 9.11776 11.448 11.2873C11.448 13.4568 13.2067 15.2156 15.3763 15.2156Z" fill="#201F3B"/>
<path d="M48.3432 44.2788C48.1438 44.2788 47.946 44.2185 47.776 44.1011C47.3217 43.7843 36.6387 36.2368 37.3001 27.2042C37.7591 20.9486 42.5064 16.2307 48.3432 16.2307C54.4334 16.2307 59.3893 21.1851 59.3893 27.2769C59.3893 31.2886 57.5658 35.4796 54.1151 39.3924C51.5482 42.3054 49.0077 44.0362 48.8995 44.1088C48.7311 44.2216 48.5363 44.2788 48.3432 44.2788ZM48.3432 18.218C43.5588 18.218 39.6645 22.1432 39.2828 27.3495C38.7836 34.1568 46.2168 40.4061 48.3494 42.0504C50.4062 40.485 57.402 34.6204 57.402 27.2769C57.4005 22.2808 53.3377 18.218 48.3432 18.218ZM38.2907 27.2753H38.2938H38.2907Z" fill="#201F3B"/>
<path d="M48.3293 31.4463C50.4988 31.4463 52.2576 29.6875 52.2576 27.518C52.2576 25.3485 50.4988 23.5897 48.3293 23.5897C46.1598 23.5897 44.401 25.3485 44.401 27.518C44.401 29.6875 46.1598 31.4463 48.3293 31.4463Z" fill="#201F3B"/>
<path d="M46.3218 47.7759C46.3203 47.7759 46.3203 47.7759 46.3187 47.7759L42.3441 47.7651C41.7955 47.7636 41.352 47.317 41.3535 46.7684C41.355 46.2213 41.8001 45.7778 42.3472 45.7778C42.3487 45.7778 42.3487 45.7778 42.3503 45.7778L46.3249 45.7886C46.8735 45.7902 47.317 46.2368 47.3155 46.7854C47.3139 47.334 46.8688 47.7759 46.3218 47.7759ZM38.3725 47.7559C38.371 47.7559 38.371 47.7559 38.3694 47.7559L34.3948 47.745C33.8462 47.7435 33.4027 47.2969 33.4042 46.7483C33.4058 46.1997 33.8508 45.7577 34.3979 45.7577C34.3994 45.7577 34.3994 45.7577 34.401 45.7577L38.3756 45.7685C38.9242 45.7701 39.3677 46.2167 39.3662 46.7653C39.3646 47.3123 38.9196 47.7559 38.3725 47.7559ZM30.4217 47.7342C30.4202 47.7342 30.4202 47.7342 30.4186 47.7342L26.444 47.7234C25.8954 47.7218 25.4519 47.2752 25.4534 46.7267C25.4549 46.1781 25.9 45.7361 26.4471 45.7361C26.4486 45.7361 26.4486 45.7361 26.4502 45.7361L30.4248 45.7469C30.9734 45.7485 31.4169 46.195 31.4154 46.7436C31.4138 47.2907 30.9703 47.7342 30.4217 47.7342ZM22.4724 47.7126C22.4709 47.7126 22.4709 47.7126 22.4693 47.7126L20.7494 47.7079C19.8515 47.7049 18.9877 47.5441 18.1841 47.2289C17.6726 47.028 17.4207 46.4516 17.6216 45.9416C17.8209 45.4301 18.3989 45.1782 18.9089 45.3791C19.4822 45.6032 20.1034 45.7191 20.754 45.7206L22.4724 45.7253C23.021 45.7268 23.4645 46.1734 23.463 46.722C23.4645 47.2691 23.0195 47.7126 22.4724 47.7126ZM15.88 44.5539C15.4349 44.5539 15.03 44.2525 14.9172 43.8028C14.8415 43.5015 14.7998 43.1924 14.7936 42.8818L14.7349 39.9936C14.7349 39.8189 14.7457 39.6428 14.7689 39.4697C14.8384 38.9257 15.3375 38.5409 15.8815 38.6105C16.4255 38.68 16.8103 39.1792 16.7407 39.7231C16.7299 39.8112 16.7237 39.9024 16.7237 39.9936V40.0368L16.7825 42.8401C16.7855 43.0008 16.8072 43.1615 16.8474 43.3176C16.9818 43.8492 16.6573 44.3901 16.1257 44.523C16.0407 44.5446 15.9603 44.5539 15.88 44.5539ZM18.1485 37.6276C17.7761 37.6276 17.4191 37.4175 17.2491 37.0574C17.0143 36.5613 17.2275 35.9695 17.7236 35.7346C18.6276 35.3081 19.6599 35.0824 20.7107 35.0824H22.0413C22.5899 35.0824 23.0349 35.5275 23.0349 36.0761C23.0349 36.6247 22.5899 37.0698 22.0413 37.0698H20.7107C19.9504 37.0698 19.2117 37.2305 18.572 37.5318C18.436 37.5967 18.2907 37.6276 18.1485 37.6276ZM26.0159 37.0698C25.4673 37.0698 25.0223 36.6247 25.0223 36.0761C25.0223 35.5275 25.4673 35.0824 26.0159 35.0824H29.3848C29.5563 35.0824 29.7278 35.0747 29.8947 35.0577C30.4433 35.0052 30.927 35.4054 30.978 35.9525C31.0306 36.4995 30.6303 36.9848 30.0833 37.0358C29.853 37.0574 29.6181 37.0682 29.3848 37.0682L26.0159 37.0698ZM33.4939 35.3683C33.2621 35.3683 33.0287 35.288 32.8402 35.1226C32.4276 34.761 32.3858 34.1336 32.7475 33.721C33.1585 33.2512 33.3764 32.7103 33.3764 32.1571C33.3764 31.8078 33.2914 31.4648 33.1214 31.1372C32.8695 30.6504 33.0596 30.0508 33.5464 29.7973C34.0347 29.5455 34.6328 29.7355 34.8862 30.2223C35.203 30.8343 35.3637 31.4833 35.3637 32.1555C35.3637 33.1971 34.9758 34.1892 34.2434 35.0268C34.0455 35.254 33.7705 35.3683 33.4939 35.3683ZM30.8791 29.4126C30.8003 29.4126 30.72 29.4033 30.6396 29.3832C30.2363 29.2828 29.8128 29.2333 29.3832 29.2333H26.9169C26.3683 29.2333 25.9232 28.7882 25.9232 28.2396C25.9232 27.691 26.3683 27.246 26.9169 27.246H29.3832C29.9735 27.246 30.5561 27.3155 31.1156 27.4546C31.6487 27.586 31.9732 28.1253 31.8419 28.6569C31.7322 29.1097 31.3257 29.4126 30.8791 29.4126ZM22.9438 29.2333H18.9691C18.4205 29.2333 17.9755 28.7882 17.9755 28.2396C17.9755 27.691 18.4205 27.246 18.9691 27.246H22.9438C23.4924 27.246 23.9374 27.691 23.9374 28.2396C23.9374 28.7882 23.4924 29.2333 22.9438 29.2333Z" fill="#201F3B"/>
<path d="M44.4009 7.38514C42.6408 7.38514 41.2083 5.9526 41.2083 4.19245C41.2083 2.4323 42.6408 0.999756 44.4009 0.999756C46.1611 0.999756 47.5936 2.4323 47.5936 4.19245C47.5936 5.9526 46.1611 7.38514 44.4009 7.38514ZM44.4009 2.98862C43.7364 2.98862 43.1956 3.52949 43.1956 4.19399C43.1956 4.85849 43.7364 5.39937 44.4009 5.39937C45.0654 5.39937 45.6063 4.85849 45.6063 4.19399C45.6063 3.52949 45.0654 2.98862 44.4009 2.98862Z" fill="#FAA719"/>
</svg>
