<?xml version="1.0" encoding="utf-8"?>
<!-- Generator: Adobe Illustrator 27.0.0, SVG Export Plug-In . SVG Version: 6.00 Build 0)  -->
<svg version="1.1" id="Layer_1" xmlns="http://www.w3.org/2000/svg" xmlns:xlink="http://www.w3.org/1999/xlink" x="0px" y="0px"
	 viewBox="0 0 24 24" style="enable-background:new 0 0 24 24;" xml:space="preserve">
<path d="M6.8,11h13.4c0.4,0,0.8,0.4,0.8,0.9v0.1c0,0.5-0.4,0.9-0.8,0.9H6.8C6.4,13,6,12.6,6,12.1v-0.1C6,11.4,6.4,11,6.8,11z"/>
<path d="M11.5,16h8.9c0.3,0,0.5,0.4,0.5,1V17c0,0.5-0.2,1-0.5,1h-8.9c-0.3,0-0.5-0.4-0.5-1V17C11,16.4,11.2,16,11.5,16z"/>
<path d="M4,6H20c0.5,0,1,0.4,1,0.9v0.1C21,7.6,20.6,8,20,8H4C3.4,8,3,7.6,3,7.1V6.9C3,6.4,3.4,6,4,6z"/>
</svg>
