<svg width="51" height="51" viewBox="0 0 51 51" fill="none" xmlns="http://www.w3.org/2000/svg">
<g clip-path="url(#clip0_280_1856)">
<path d="M25.5464 2.77504C25.9836 2.74409 26.4128 2.94573 26.8451 3.10145C27.1884 3.22522 27.3242 3.1853 27.2972 2.78801C27.2733 2.42567 27.2633 2.05334 27.3162 1.69598C27.4689 0.667837 28.3643 -0.045875 29.3874 0.00702955C30.4235 0.0609323 31.2341 0.898421 31.27 1.95951C31.281 2.29091 31.278 2.62231 31.272 2.95471C31.269 3.16134 31.3488 3.22023 31.5445 3.15335C31.8579 3.04555 32.1703 2.93575 32.4888 2.84691C33.5548 2.54745 34.6179 3.10544 34.9573 4.13458C35.2877 5.13677 34.7796 6.20285 33.7684 6.60912C33.5079 6.71393 33.2424 6.81974 32.9689 6.87464C32.5037 6.96947 32.5686 7.16012 32.8032 7.45459C33.2264 7.98763 33.6367 8.52267 33.5937 9.27431C33.5458 10.1168 33.0677 10.8016 32.2692 11.0761C31.4716 11.3496 30.5922 11.102 30.0732 10.4492C29.8975 10.2286 29.7098 10.013 29.5721 9.76942C29.3345 9.35017 29.1798 9.47096 28.9622 9.79337C28.7136 10.1607 28.4841 10.55 28.1038 10.8145C27.3431 11.3436 26.317 11.2997 25.6153 10.6957C24.9345 10.1098 24.7469 9.06269 25.203 8.25116C25.3887 7.92075 25.6163 7.60931 25.8529 7.31285C26.0415 7.07628 25.9647 6.98045 25.7171 6.90658C25.3847 6.80676 25.0473 6.71593 24.7279 6.58117C23.8465 6.21084 23.3404 5.24758 23.5371 4.35319C23.7447 3.40789 24.5353 2.77304 25.5444 2.77603L25.5464 2.77504Z" fill="#F8A71B"/>
<path d="M41.4773 2.77502C41.9585 2.74807 42.4116 2.98165 42.8818 3.13238C43.1603 3.22221 43.2401 3.15633 43.2281 2.87883C43.2152 2.58137 43.2212 2.28191 43.2281 1.98345C43.2511 0.878441 44.0966 0.0229843 45.1806 0.00601487C46.2816 -0.0119527 47.169 0.844502 47.2059 1.96648C47.2159 2.26494 47.2219 2.5644 47.2059 2.86186C47.1869 3.18129 47.2967 3.21523 47.5832 3.12139C48.0364 2.97266 48.4756 2.77003 48.9727 2.77203C49.9619 2.77502 50.7654 3.41387 50.966 4.38012C51.1457 5.25155 50.6436 6.20583 49.7892 6.57217C49.4398 6.7219 49.0755 6.83769 48.7111 6.9455C48.4995 7.00838 48.4846 7.09722 48.6043 7.25693C48.783 7.4955 48.9627 7.73407 49.1324 7.97863C49.7842 8.91594 49.6215 10.1447 48.767 10.7786C47.8347 11.4703 46.6589 11.2757 45.9113 10.3284C45.6817 10.0369 45.5429 9.50987 45.1926 9.51885C44.8941 9.52684 44.7444 10.0429 44.5208 10.3274C43.7732 11.2787 42.5963 11.4703 41.665 10.7786C40.7806 10.1218 40.6359 8.91494 41.3246 7.94669C41.4684 7.74406 41.5991 7.52844 41.7638 7.34478C42.0144 7.06628 41.8796 6.96746 41.5981 6.8866C41.2647 6.78978 40.9263 6.69894 40.6099 6.55919C39.7635 6.18387 39.2793 5.21562 39.475 4.34519C39.6876 3.40089 40.4792 2.77103 41.4793 2.77702L41.4773 2.77502Z" fill="#F8A71B"/>
<path d="M9.03956 9.12259C8.97668 8.48674 9.4049 7.97866 9.81116 7.48056C10.1146 7.10723 10.0597 6.94253 9.59854 6.8467C9.34101 6.79379 9.08947 6.69996 8.84492 6.60114C7.84075 6.19388 7.33767 5.11482 7.67705 4.11762C8.01942 3.11144 9.06152 2.55843 10.1086 2.83593C10.3801 2.9078 10.6546 2.98467 10.9102 3.09846C11.3174 3.28013 11.3773 3.11044 11.3663 2.7421C11.3543 2.33085 11.3154 1.91659 11.4262 1.50633C11.6887 0.542072 12.5811 -0.0937807 13.5513 0.0110302C14.5296 0.116839 15.2872 0.914401 15.3371 1.90461C15.3531 2.21905 15.3531 2.53548 15.3391 2.84891C15.3261 3.13739 15.389 3.23122 15.7044 3.12541C16.1716 2.9677 16.6277 2.76207 17.1428 2.77105C18.106 2.78602 18.8926 3.41689 19.0962 4.36518C19.2789 5.21764 18.8038 6.17192 17.9823 6.54524C17.6369 6.70196 17.2726 6.82374 16.9052 6.92156C16.6018 7.00242 16.6257 7.1262 16.7824 7.32683C16.9561 7.54843 17.1268 7.77303 17.2855 8.00561C17.9244 8.94292 17.7417 10.1727 16.8743 10.7976C15.951 11.4634 14.7791 11.2727 14.0604 10.3364C13.8887 10.1128 13.72 9.88622 13.5653 9.65164C13.4036 9.40508 13.2758 9.44202 13.1271 9.66362C12.9514 9.92415 12.7648 10.1787 12.5711 10.4262C12.0381 11.107 11.1567 11.3576 10.3382 11.0681C9.52867 10.7816 9.04156 10.0809 9.04056 9.1216L9.03956 9.12259Z" fill="#F8A71B"/>
<path d="M44.9461 27.3916C44.7045 27.3916 44.4629 27.3906 44.2204 27.3906C43.9229 27.3906 43.6265 27.3906 43.329 27.3916C43.0315 27.3916 42.7341 27.3926 42.4366 27.3926C41.9825 27.3926 41.6081 27.3916 41.2598 27.3886C40.057 27.3796 39.1506 26.613 38.951 25.4351C38.6725 23.7871 38.401 22.171 38.1405 20.527C37.7282 17.9217 36.1072 16.1179 33.6946 15.5769C33.0727 15.4371 32.4458 15.4202 31.9687 15.4202C31.6992 15.4202 31.4217 15.4272 31.1542 15.4331C30.8837 15.4401 30.6032 15.4461 30.3267 15.4461C30.2628 15.4461 30.1979 15.4461 30.1341 15.4451C30.1191 15.4451 30.1041 15.4451 30.0901 15.4451C28.8294 15.4451 28.1896 16.0959 28.1886 17.3786C28.1886 18.266 28.1886 19.1544 28.1886 20.0418C28.1896 21.6829 28.1906 23.3788 28.1846 25.0478C28.1826 25.7016 27.9461 26.2955 27.5188 26.7198C27.0946 27.142 26.5007 27.3796 25.8459 27.3906C25.807 27.3906 25.768 27.3906 25.7291 27.3906C25.6702 27.3906 25.6123 27.3906 25.5534 27.3896C25.4965 27.3896 25.4406 27.3886 25.3837 27.3886C25.2759 27.3886 25.1891 27.3906 25.1112 27.3956C24.2288 27.4465 23.5291 28.1792 23.5181 29.0636C23.5071 29.922 24.1719 30.6717 25.0324 30.7685C25.2729 30.7954 25.5165 30.8094 25.754 30.8094C27.3312 30.8094 28.7955 30.2135 29.8765 29.1314C30.9665 28.0404 31.5684 26.5481 31.5714 24.931C31.5724 24.1344 31.5724 23.3379 31.5724 22.5413C31.5724 21.5451 31.5724 20.516 31.5754 19.5028C31.5754 19.4898 31.5734 19.4669 31.5704 19.4449C31.5205 18.9777 31.811 18.846 32.0645 18.818C32.1654 18.8071 32.2672 18.8011 32.367 18.8011C33.5718 18.8011 34.552 19.6196 34.7496 20.7915C35.0341 22.4744 35.3086 24.1424 35.5662 25.7485C35.8087 27.2588 36.4835 28.5255 37.5186 29.4129C38.5537 30.3003 39.9072 30.7715 41.4315 30.7745C41.5622 30.7745 41.693 30.7745 41.8247 30.7745C42.1312 30.7745 42.4376 30.7745 42.7431 30.7735C43.0495 30.7735 43.355 30.7725 43.6614 30.7725H43.6654C44.1924 30.7725 44.6226 30.7745 45.0189 30.7785C46.1509 30.7904 47.0572 31.5511 47.2738 32.671C47.3636 33.1352 47.2219 33.5455 47.0971 33.9078C47.0772 33.9647 47.0582 34.0216 47.0392 34.0785C46.2018 36.6309 45.3453 39.2232 44.5168 41.7307C44.0976 43.0004 43.6784 44.2711 43.2591 45.5408C42.8569 46.7606 42.1092 47.3056 40.8355 47.3066C39.0817 47.3076 37.3289 47.3086 35.5761 47.3086H32.378H29.1798H29.084C28.6957 47.3086 28.3104 47.3086 27.9251 47.3066C27.5398 47.3066 27.1545 47.3046 26.7692 47.3046C26.1633 47.3046 25.6652 47.3066 25.2031 47.3116C24.3786 47.3196 23.7297 47.8586 23.5521 48.6862C23.3944 49.4168 23.7866 50.1765 24.5053 50.5348C24.5153 50.5398 24.5433 50.5478 24.5662 50.5548C24.6371 50.5757 24.7489 50.6087 24.8457 50.6935H41.8008C41.9505 50.5708 42.1272 50.5558 42.244 50.5468C42.2819 50.5438 42.3218 50.5408 42.3438 50.5348C44.3681 50.0058 45.7296 48.763 46.3904 46.8405C47.4245 43.8319 48.4387 40.7605 49.4189 37.7888C49.6774 37.0062 49.935 36.2246 50.1935 35.443C50.2204 35.3622 50.2474 35.2813 50.2743 35.2005C50.464 34.6375 50.6427 34.1055 50.6816 33.5465C50.7934 31.9184 50.2574 30.3802 49.1733 29.2143C48.0863 28.0454 46.5851 27.3986 44.9461 27.3916Z" fill="black"/>
<path d="M13.9127 27.3936C12.641 27.3886 11.3324 27.3866 10.0238 27.3866C8.71516 27.3866 7.35764 27.3886 6.00211 27.3936C3.36392 27.4026 1.14297 29.1374 0.476188 31.7108C0.471197 31.7298 0.467204 31.7607 0.463211 31.7936C0.450235 31.8975 0.429273 32.0682 0.307495 32.2089V45.8283C0.413302 46.015 0.452231 46.2096 0.486169 46.3843C0.505135 46.4792 0.523102 46.569 0.549055 46.6479C1.22582 48.6662 2.54741 49.9299 4.58869 50.5119C4.61464 50.5189 4.65157 50.5249 4.6905 50.5308C4.8023 50.5478 4.97099 50.5738 5.11473 50.6926H14.6923C14.7701 50.6287 14.8739 50.5947 15.0047 50.5907C15.0127 50.5907 15.0207 50.5907 15.0287 50.5907C17.8585 49.9389 19.6183 47.7369 19.6213 44.8431V43.3099C19.6263 39.9629 19.6293 36.5012 19.6193 33.0973C19.6103 29.91 17.1029 27.4036 13.9117 27.3916L13.9127 27.3936ZM17.049 45.8303C17.023 47.2717 15.948 48.3697 14.5475 48.3847C13.9786 48.3907 13.3727 48.3937 12.6939 48.3937C11.8385 48.3937 10.9691 48.3887 10.1276 48.3847C9.50872 48.3817 8.88985 48.3777 8.26998 48.3767C7.97751 48.3787 7.67806 48.3827 7.38758 48.3867C7.00329 48.3917 6.60701 48.3977 6.21572 48.3977C5.91028 48.3977 5.63778 48.3947 5.38124 48.3877C3.95984 48.3508 2.88579 47.2508 2.8818 45.8283C2.86982 41.3155 2.86982 36.7487 2.8818 32.2548C2.88579 30.8513 3.98379 29.7284 5.38224 29.6974C5.6228 29.6924 5.87634 29.6894 6.15783 29.6894C6.56808 29.6894 6.98532 29.6944 7.38758 29.7004C7.68305 29.7044 7.97751 29.7084 8.27297 29.7104C8.89484 29.7084 9.5187 29.7054 10.1436 29.7014C10.9541 29.6964 11.7936 29.6914 12.618 29.6914C13.3507 29.6914 14.0005 29.6954 14.6054 29.7034C15.2922 29.7124 15.918 29.9939 16.3682 30.494C16.8074 30.9821 17.05 31.6489 17.051 32.3706C17.055 34.9619 17.055 37.5962 17.054 40.1436C17.054 41.1328 17.054 42.123 17.054 43.1122C17.054 43.3837 17.055 43.6553 17.056 43.9268C17.0589 44.5506 17.0609 45.1955 17.05 45.8313L17.049 45.8303Z" fill="black"/>
<path d="M0.00703645 45.9142C0.00703645 47.5073 0.0130254 49.1014 4.93143e-05 50.6946C-0.00194701 50.9441 0.0559464 51.002 0.305487 51C1.86561 50.987 3.42574 50.993 4.98587 50.993C3.77011 50.8333 2.73501 50.3033 1.84166 49.4718C0.801573 48.5045 0.155763 47.3386 0.00703645 45.9142Z" fill="white"/>
<path d="M4.50679 50.8014C2.37771 50.1945 0.96831 48.8419 0.265604 46.7437C0.207711 46.572 0.188746 46.3883 0.140834 46.2136C0.111887 46.1088 0.0719606 46.008 0.00708008 45.9142C0.155806 47.3386 0.801617 48.5045 1.8417 49.4718C2.73506 50.3033 3.77015 50.8333 4.98591 50.993C4.87013 50.8203 4.67049 50.8473 4.50679 50.8004V50.8014Z" fill="white"/>
<path d="M5.17754 48.3758C6.1757 48.4017 7.17586 48.3708 8.17402 48.3648C7.60107 47.8767 7.49028 47.1849 7.44336 46.5141C7.35053 45.1945 7.40643 43.8699 7.41741 42.5473C7.41841 42.3906 7.44736 42.2368 7.54717 42.1081C7.59209 42.0971 7.63102 42.0931 7.66695 42.0931C7.67094 42.0871 7.67594 42.0811 7.67893 42.0741C7.64998 41.9643 7.62802 41.8545 7.61205 41.7447C7.59608 41.7397 7.58111 41.7348 7.56314 41.7338C7.56015 41.7278 7.55815 41.7228 7.55516 41.7168C7.56913 41.6679 7.58211 41.619 7.59309 41.5701C7.57612 41.3375 7.5891 41.1059 7.63301 40.8733C7.62503 40.8054 7.61505 40.7376 7.60107 40.6687C7.58111 40.6597 7.55915 40.6457 7.53519 40.6258C7.37748 40.3792 7.40244 40.1017 7.40244 39.8312C7.39944 37.2459 7.38447 34.6615 7.40943 32.0762C7.41741 31.2227 7.4783 30.3563 8.17502 29.7084C8.14707 29.7084 8.11912 29.7084 8.09117 29.7084C8.05124 29.7084 8.01132 29.7084 7.97139 29.7084C7.45534 29.7055 6.93829 29.6955 6.42224 29.6905C6.00701 29.6875 5.59277 29.6865 5.17754 29.6955C4.02266 29.7204 3.10036 30.53 2.9157 31.628C2.90971 31.6659 2.90372 31.7038 2.89973 31.7418C2.89674 31.7687 2.89374 31.7967 2.89175 31.8246C2.88676 31.8845 2.88376 31.9454 2.88276 32.0063C2.88276 32.0133 2.88276 32.0213 2.88276 32.0283C2.87078 36.6998 2.87078 41.3704 2.88276 46.042C2.88276 46.057 2.88276 46.0709 2.88376 46.0859C2.88376 46.1338 2.88676 46.1807 2.89075 46.2276C2.98358 47.4315 3.94481 48.3448 5.17853 48.3768L5.17754 48.3758Z" fill="#39B5BE"/>
<path d="M8.27095 30.0088C8.31088 30.0088 8.3508 30.0088 8.39073 30.0088C7.83475 30.0048 7.27778 29.9958 6.7218 29.9918C7.23785 29.9968 7.7549 30.0058 8.27095 30.0088Z" fill="#39B5BE"/>
<path d="M8.06099 41.6465C8.05823 41.6419 8.05639 41.6364 8.05363 41.6309C8.05087 41.6355 8.04719 41.641 8.04443 41.6456C8.04995 41.6456 8.05547 41.6456 8.06099 41.6456V41.6465Z" fill="black"/>
<path d="M8.05351 40.437C8.05351 40.437 8.05245 40.4425 8.05139 40.4453C8.05245 40.4453 8.05456 40.4453 8.05668 40.4453C8.05668 40.4425 8.05456 40.4398 8.05456 40.437H8.05351Z" fill="#334A9F"/>
<path d="M9.04552 43.0054C9.97055 43.0054 10.7204 42.2554 10.7204 41.3304C10.7204 40.4053 9.97055 39.6554 9.04552 39.6554C8.12049 39.6554 7.37061 40.4053 7.37061 41.3304C7.37061 42.2554 8.12049 43.0054 9.04552 43.0054Z" fill="black"/>
</g>
<defs>
<clipPath id="clip0_280_1856">
<rect width="51" height="51" fill="white"/>
</clipPath>
</defs>
</svg>
