<?xml version="1.0" encoding="utf-8"?>
<!-- Generator: Adobe Illustrator 27.0.0, SVG Export Plug-In . SVG Version: 6.00 Build 0)  -->
<svg version="1.1" id="Layer_1" xmlns="http://www.w3.org/2000/svg" xmlns:xlink="http://www.w3.org/1999/xlink" x="0px" y="0px"
	 viewBox="0 0 16 16" style="enable-background:new 0 0 16 16;" xml:space="preserve">
<style type="text/css">
	.st0{clip-path:url(#SVGID_00000128452655682959752660000011539994128724220829_);}
	.st1{fill:#FAA719;}
</style>
<g>
	<defs>
		<rect id="SVGID_1_" y="0" width="16" height="16"/>
	</defs>
	<clipPath id="SVGID_00000155864900254713170460000001527504088560129155_">
		<use xlink:href="#SVGID_1_"  style="overflow:visible;"/>
	</clipPath>
	<g style="clip-path:url(#SVGID_00000155864900254713170460000001527504088560129155_);">
		<path class="st1" d="M16,8c0-1.5-0.4-3-1.3-4.3c-0.8-1.3-2-2.3-3.4-3C10,0.1,8.4-0.1,6.9,0.1C5.4,0.3,4,1,2.8,2s-2,2.3-2.5,3.8
			c-0.4,1.5-0.5,3,0,4.5C0.7,11.7,1.5,13,2.7,14c1.1,1,2.6,1.7,4.1,1.9v-5.6h-2V8h2V6.3c0-0.4,0-0.8,0.1-1.2C7,4.7,7.2,4.3,7.5,4
			c0.3-0.3,0.6-0.5,1-0.7c0.4-0.1,0.8-0.2,1.2-0.2c0.6,0,1.2,0.1,1.8,0.2v2h-1c-0.2,0-0.3,0-0.5,0C9.9,5.4,9.7,5.5,9.6,5.6
			C9.5,5.7,9.4,5.9,9.3,6C9.3,6.2,9.2,6.4,9.3,6.6v1.5h2.2l-0.4,2.3H9.2V16c1.9-0.3,3.6-1.3,4.8-2.7C15.3,11.8,16,10,16,8z"/>
	</g>
</g>
</svg>
