<svg width="19" height="31" viewBox="0 0 19 31" fill="none" xmlns="http://www.w3.org/2000/svg">
<g clip-path="url(#clip0_280_2010)">
<path d="M3.63284 29.8314C4.93557 29.8314 5.99164 28.7692 5.99164 27.4589C5.99164 26.1486 4.93557 25.0864 3.63284 25.0864C2.33012 25.0864 1.27405 26.1486 1.27405 27.4589C1.27405 28.7692 2.33012 29.8314 3.63284 29.8314Z" fill="#FAA71A"/>
<path d="M4.23279 14.4781V3.59204L16.5899 9.2364L4.23279 14.4781Z" fill="#00B5BD"/>
<path d="M3.12265 30.9998C2.51908 30.85 1.93843 30.6565 1.43073 30.272C-0.750795 28.62 -0.373339 25.1795 2.12233 24.0691C2.34301 23.9709 2.40753 23.8599 2.40753 23.624C2.4009 16.8461 2.4015 10.0683 2.4021 3.29045C2.4021 1.6154 3.41991 0.361839 5.05334 0.0458716C5.65027 -0.0693565 6.23093 0.0361682 6.77902 0.296341C10.3612 1.99687 13.9459 3.69193 17.5208 5.40822C18.5398 5.89764 19.059 6.74911 18.9945 7.89291C18.933 8.98272 18.3451 9.7311 17.3544 10.1508C14.5066 11.3558 11.6558 12.5554 8.80438 13.752C8.0772 14.057 7.38681 13.7999 7.11728 13.1425C6.84836 12.4869 7.15889 11.8179 7.88365 11.5111C10.6488 10.3418 13.4158 9.17679 16.1804 8.0045C16.327 7.94264 16.4512 7.82801 16.5856 7.73826C16.4518 7.64365 16.3288 7.52782 16.1835 7.45807C12.7761 5.83275 9.35971 4.22562 5.96261 2.57968C5.31502 2.26614 4.85858 2.63244 4.85798 3.28924C4.85134 10.0671 4.82783 16.8449 4.8013 23.6221C4.80009 23.8575 4.86762 23.9648 5.08409 24.0697C6.44257 24.7277 7.15949 25.8266 7.20833 27.3458C7.23004 28.0214 6.71269 28.5563 6.06391 28.5757C5.38195 28.5958 4.85255 28.1154 4.81155 27.4223C4.7808 26.9086 4.5782 26.5053 4.10548 26.2803C3.69184 26.0832 3.28424 26.1275 2.91101 26.3931C2.48893 26.6939 2.3201 27.2003 2.45878 27.7024C2.59566 28.1985 3.02678 28.5406 3.59778 28.5739C4.04036 28.6 4.39068 28.771 4.62584 29.1519C4.99726 29.7535 4.78321 30.534 4.16155 30.8639C4.07593 30.9094 3.99031 30.9537 3.90469 30.9992H3.12265V30.9998Z" fill="black"/>
</g>
<defs>
<clipPath id="clip0_280_2010">
<rect width="19" height="31" fill="white"/>
</clipPath>
</defs>
</svg>
