<svg width="16" height="16" viewBox="0 0 16 16" fill="none" xmlns="http://www.w3.org/2000/svg">
<path d="M6.71331 1.87998L2.09331 5.57997C1.57331 5.9933 1.23997 6.86666 1.35331 7.51999L2.23997 12.8266C2.39997 13.7733 3.30664 14.54 4.26664 14.54H11.7333C12.6866 14.54 13.6 13.7666 13.76 12.8266L14.6466 7.51999C14.7533 6.86666 14.42 5.9933 13.9066 5.57997L9.28664 1.88665C8.5733 1.31332 7.41998 1.31331 6.71331 1.87998Z" stroke="#00B6BE" stroke-linecap="round" stroke-linejoin="round"/>
<path d="M8.00004 10.3333C8.92052 10.3333 9.66671 9.58714 9.66671 8.66667C9.66671 7.74619 8.92052 7 8.00004 7C7.07957 7 6.33337 7.74619 6.33337 8.66667C6.33337 9.58714 7.07957 10.3333 8.00004 10.3333Z" stroke="#00B6BE" stroke-linecap="round" stroke-linejoin="round"/>
</svg>
