<svg width="16" height="16" viewBox="0 0 16 16" fill="none" xmlns="http://www.w3.org/2000/svg">
<path d="M8.33335 14.6668H2.72002C1.94669 14.6668 1.31335 14.0468 1.31335 13.2868V3.39348C1.31335 1.64682 2.61335 0.853485 4.20669 1.63348L7.16669 3.08682C7.80669 3.40015 8.33335 4.23348 8.33335 4.94015V14.6668Z" stroke="#00B6BE" stroke-linecap="round" stroke-linejoin="round"/>
<path d="M14.6467 10.0401V12.5601C14.6467 14.0001 13.98 14.6668 12.54 14.6668H8.33337V6.94678L8.64671 7.01344L11.6467 7.68678L13 7.98678C13.88 8.18011 14.6 8.63344 14.64 9.91344C14.6467 9.95344 14.6467 9.99344 14.6467 10.0401Z" stroke="#00B6BE" stroke-linecap="round" stroke-linejoin="round"/>
<path d="M3.66663 6H5.97996" stroke="#00B6BE" stroke-linecap="round" stroke-linejoin="round"/>
<path d="M3.66663 8.66675H5.97996" stroke="#00B6BE" stroke-linecap="round" stroke-linejoin="round"/>
<path d="M11.6466 7.68676V9.83343C11.6466 10.6601 10.9733 11.3334 10.1466 11.3334C9.31994 11.3334 8.64661 10.6601 8.64661 9.83343V7.01343L11.6466 7.68676Z" stroke="#00B6BE" stroke-linecap="round" stroke-linejoin="round"/>
<path d="M14.6399 9.91343C14.5999 10.7001 13.9466 11.3334 13.1466 11.3334C12.3199 11.3334 11.6466 10.6601 11.6466 9.83343V7.68677L12.9999 7.98677C13.8799 8.1801 14.5999 8.63343 14.6399 9.91343Z" stroke="#00B6BE" stroke-linecap="round" stroke-linejoin="round"/>
</svg>
