<svg width="24" height="24" viewBox="0 0 24 24" fill="none" xmlns="http://www.w3.org/2000/svg">
<rect width="24" height="24" fill="white"/>
<path d="M17.4984 7.5999C18.106 7.5999 18.5984 7.10742 18.5984 6.4999C18.5984 5.89239 18.106 5.3999 17.4984 5.3999C16.8909 5.3999 16.3984 5.89239 16.3984 6.4999C16.3984 7.10742 16.8909 7.5999 17.4984 7.5999Z" fill="#282828"/>
<path fill-rule="evenodd" clip-rule="evenodd" d="M6.5 12C6.5 15.0333 8.96675 17.5 12 17.5C15.0333 17.5 17.5 15.0333 17.5 12C17.5 8.96675 15.0333 6.5 12 6.5C8.96675 6.5 6.5 8.96675 6.5 12ZM8.69959 12.0001C8.69959 13.8201 10.1796 15.3001 11.9996 15.3001C13.8195 15.3001 15.2996 13.8201 15.2996 12.0001C15.2996 10.1802 13.8195 8.7001 11.9996 8.7001C10.1796 8.7001 8.69959 10.1802 8.69959 12.0001Z" fill="#282828"/>
<path d="M17.5 23H6.5C3.673 23 1 20.327 1 17.5V6.5C1 3.673 3.673 1 6.5 1H17.5C20.327 1 23 3.673 23 6.5V17.5C23 20.327 20.327 23 17.5 23ZM5.95 3.2C4.66438 3.2 3.2 4.66438 3.2 5.95V18.05C3.2 19.3604 4.63963 20.8 5.95 20.8H18.05C19.3356 20.8 20.8 19.3356 20.8 18.05V5.95C20.8 4.66438 19.3356 3.2 18.05 3.2H5.95Z" fill="#282828"/>
</svg>
