<svg width="16" height="16" viewBox="0 0 16 16" fill="none" xmlns="http://www.w3.org/2000/svg">
<path d="M12.6667 6.90909C12.6667 10.7273 8.00004 14 8.00004 14C8.00004 14 3.33337 10.7273 3.33337 6.90909C3.33337 5.60712 3.82504 4.35847 4.70021 3.43784C5.57538 2.51721 6.76236 2 8.00004 2C9.23772 2 10.4247 2.51721 11.2999 3.43784C12.175 4.35847 12.6667 5.60712 12.6667 6.90909Z" stroke="#FFC709" stroke-linecap="round" stroke-linejoin="round"/>
<path d="M7.99996 7.99967C8.73634 7.99967 9.33329 7.40272 9.33329 6.66634C9.33329 5.92996 8.73634 5.33301 7.99996 5.33301C7.26358 5.33301 6.66663 5.92996 6.66663 6.66634C6.66663 7.40272 7.26358 7.99967 7.99996 7.99967Z" stroke="#FFC709" stroke-linecap="round" stroke-linejoin="round"/>
</svg>
