<svg id="Layer_1" data-name="Layer 1" xmlns="http://www.w3.org/2000/svg" xmlns:xlink="http://www.w3.org/1999/xlink" viewBox="0 0 383.6 143"><defs><style>.cls-1{fill:none;}.cls-2{fill:#ffbc00;}.cls-3{fill:#fff;}.cls-4{fill:#fb0;}.cls-5{fill:#bcbec0;}.cls-6{clip-path:url(#clip-path);}.cls-7{fill:#02c9ba;}</style><clipPath id="clip-path"><path class="cls-1" d="M207.17,126.08a2.16,2.16,0,0,1-1,2.2,2.31,2.31,0,0,1-2.4.2l-6.5-3.3a2.56,2.56,0,0,0-2.1,0l-6.5,3.2a2.31,2.31,0,0,1-2.4-.2,2.17,2.17,0,0,1-.9-2.2l1.1-7.2a2.42,2.42,0,0,0-.6-2l-5.1-5.2a2.3,2.3,0,0,1-.5-2.4,2.59,2.59,0,0,1,1.9-1.6l7.2-1.2a2.38,2.38,0,0,0,1.7-1.2l3.4-6.4a2.35,2.35,0,0,1,4.2,0l3.3,6.5a2.14,2.14,0,0,0,1.7,1.2l7.2,1.2a2.14,2.14,0,0,1,1.8,1.6,2.44,2.44,0,0,1-.6,2.4l-5.1,5.2a2.49,2.49,0,0,0-.7,2Z"/></clipPath></defs><path class="cls-2" d="M367.07,134.48H241.87a5,5,0,0,1-5-5V96.88a5,5,0,0,1,5-5h125.2a5,5,0,0,1,5,5v32.6A5,5,0,0,1,367.07,134.48Z"/><path class="cls-3" d="M267.67,124h-3.8l-4.7-8.7h-4.1V124h-3.5v-21.6h7.8c5.4,0,7,2.9,7,6a6.11,6.11,0,0,1-4,6.1Zm-9.2-11.5c2.5,0,4.4-.8,4.4-3.9,0-2.6-1.7-3.3-4.5-3.3h-3.3v7.2Z"/><path class="cls-3" d="M274.17,121.08h10V124h-13.5v-21.6h13.1v2.9h-9.6v6.4h9v2.9h-9Z"/><path class="cls-3" d="M292.67,124l-7.2-21.6h3.9l5.7,18.2h.1l5.5-18.2h3.5l-6.8,21.6Z"/><path class="cls-3" d="M310.47,124H307v-21.6h3.5Z"/><path class="cls-3" d="M319.07,121.08h10V124h-13.5v-21.6h13.1v2.9h-9.6v6.4h9v2.9h-9Z"/><path class="cls-3" d="M348.27,124l-4.2-16.6H344l-4.2,16.6h-4.4l-4.7-21.6h3.7l3.4,17.7h.1l4.4-17.7h3.8l4.5,17.9h.1l3.3-17.9h3.5l-4.6,21.6Z"/><path class="cls-4" d="M38.57,126.08a2.16,2.16,0,0,1-1,2.2,2.32,2.32,0,0,1-2.4.2l-6.5-3.3a2.56,2.56,0,0,0-2.1,0l-6.5,3.2a2.31,2.31,0,0,1-2.4-.2,2.17,2.17,0,0,1-.9-2.2l1.1-7.2a2.42,2.42,0,0,0-.6-2l-5.1-5.2a2.3,2.3,0,0,1-.5-2.4,2.62,2.62,0,0,1,1.8-1.6l7.2-1.2a2.38,2.38,0,0,0,1.7-1.2l3.4-6.4a2.35,2.35,0,0,1,4.2,0l3.3,6.5a2.14,2.14,0,0,0,1.7,1.2l7.2,1.2a2.28,2.28,0,0,1,1.8,1.6,2.44,2.44,0,0,1-.6,2.4l-5.1,5.2a2.49,2.49,0,0,0-.7,2Z"/><path class="cls-4" d="M80.67,126.08a2.16,2.16,0,0,1-1,2.2,2.32,2.32,0,0,1-2.4.2l-6.5-3.3a2.56,2.56,0,0,0-2.1,0l-6.5,3.2a2.31,2.31,0,0,1-2.4-.2,2.17,2.17,0,0,1-.9-2.2l1.1-7.2a2.42,2.42,0,0,0-.6-2l-5.1-5.2a2.3,2.3,0,0,1-.5-2.4,2.59,2.59,0,0,1,1.9-1.6l7.2-1.2a2.38,2.38,0,0,0,1.7-1.2l3.4-6.4a2.35,2.35,0,0,1,4.2,0l3.3,6.5a2.14,2.14,0,0,0,1.7,1.2l7.2,1.2a2.28,2.28,0,0,1,1.8,1.6,2.44,2.44,0,0,1-.6,2.4l-5.1,5.2a2.49,2.49,0,0,0-.7,2Z"/><path class="cls-4" d="M122.87,126.08a2.16,2.16,0,0,1-1,2.2,2.31,2.31,0,0,1-2.4.2l-6.5-3.3a2.56,2.56,0,0,0-2.1,0l-6.5,3.2a2.31,2.31,0,0,1-2.4-.2,2.17,2.17,0,0,1-.9-2.2l1.1-7.2a2.42,2.42,0,0,0-.6-2l-5.1-5.2a2.3,2.3,0,0,1-.5-2.4,2.62,2.62,0,0,1,1.8-1.6l7.2-1.2a2.38,2.38,0,0,0,1.7-1.2l3.4-6.4a2.35,2.35,0,0,1,4.2,0l3.3,6.5a2.14,2.14,0,0,0,1.7,1.2l7.2,1.2a2.28,2.28,0,0,1,1.8,1.6,2.44,2.44,0,0,1-.6,2.4l-5.1,5.2a2.49,2.49,0,0,0-.7,2Z"/><path class="cls-4" d="M165,126.08a2.16,2.16,0,0,1-1,2.2,2.31,2.31,0,0,1-2.4.2l-6.5-3.3a2.56,2.56,0,0,0-2.1,0l-6.5,3.2a2.31,2.31,0,0,1-2.4-.2,2.17,2.17,0,0,1-.9-2.2l1.1-7.2a2.42,2.42,0,0,0-.6-2l-5.1-5.2a2.3,2.3,0,0,1-.5-2.4,2.59,2.59,0,0,1,1.9-1.6l7.2-1.2a2.38,2.38,0,0,0,1.7-1.2l3.4-6.4a2.35,2.35,0,0,1,4.2,0l3.3,6.5a2.14,2.14,0,0,0,1.7,1.2l7.2,1.2a2.14,2.14,0,0,1,1.8,1.6,2.44,2.44,0,0,1-.6,2.4l-5.1,5.2a2.49,2.49,0,0,0-.7,2Z"/><path class="cls-5" d="M207.17,126.08a2.16,2.16,0,0,1-1,2.2,2.31,2.31,0,0,1-2.4.2l-6.5-3.3a2.56,2.56,0,0,0-2.1,0l-6.5,3.2a2.31,2.31,0,0,1-2.4-.2,2.17,2.17,0,0,1-.9-2.2l1.1-7.2a2.42,2.42,0,0,0-.6-2l-5.1-5.2a2.3,2.3,0,0,1-.5-2.4,2.59,2.59,0,0,1,1.9-1.6l7.2-1.2a2.38,2.38,0,0,0,1.7-1.2l3.4-6.4a2.35,2.35,0,0,1,4.2,0l3.3,6.5a2.14,2.14,0,0,0,1.7,1.2l7.2,1.2a2.14,2.14,0,0,1,1.8,1.6,2.44,2.44,0,0,1-.6,2.4l-5.1,5.2a2.49,2.49,0,0,0-.7,2Z"/><g class="cls-6"><rect class="cls-2" x="180.07" y="97.58" width="16.3" height="31.2"/></g><path class="cls-7" d="M12.17,9.77H34.83V35.42H59.58V9.77H82.34V83.08H59.58V53.43H34.83V83.08H12.17Z"/><path class="cls-7" d="M142.46,71H116.74l-3.57,12.1H90L117.59,9.77H142.3l27.55,73.31H146.13Zm-4.7-15.85-8.09-26.36-8,26.36Z"/><path class="cls-7" d="M177.2,9.77h21.16L226,50.33V9.77h21.36V83.08H226L198.51,42.83V83.08H177.2Z"/><path class="cls-7" d="M259.52,46.48q0-18,10-28t27.85-10q18.3,0,28.21,9.83t9.9,27.53q0,12.84-4.33,21.07a30.8,30.8,0,0,1-12.5,12.81q-8.17,4.58-20.38,4.57-12.4,0-20.53-4a30.87,30.87,0,0,1-13.17-12.5Q259.52,59.33,259.52,46.48Zm22.65.1q0,11.1,4.13,16t11.22,4.85q7.31,0,11.3-4.75t4-17.05q0-10.36-4.18-15.13t-11.33-4.78a13.78,13.78,0,0,0-11,4.85Q282.17,35.38,282.17,46.58Z"/><path class="cls-7" d="M348.58,9.77h22.71V83.08H348.58Z"/></svg>