<svg width="24" height="24" viewBox="0 0 24 24" fill="none" xmlns="http://www.w3.org/2000/svg">
<path fill-rule="evenodd" clip-rule="evenodd" d="M12.3193 2.0403C14.9805 1.91774 17.7186 2.86647 19.2894 4.88599C23.2876 10.0266 19.4207 16.9999 14 16.9999C12.7127 16.9999 11.7014 16.7172 10.9326 16.2092C10.6371 16.014 10.3892 15.7932 10.1819 15.558L8.41697 21.294C8.25455 21.8219 7.69497 22.1181 7.16711 21.9557C6.63924 21.7933 6.34299 21.2337 6.50541 20.7059L10.5054 7.70586C10.6678 7.178 11.2274 6.88175 11.7553 7.04417C12.2832 7.20659 12.5794 7.76617 12.417 8.29403L11.2058 12.2303C11.2036 12.2458 11.2009 12.2656 11.1981 12.289C11.1888 12.3686 11.1784 12.4884 11.177 12.6342C11.1742 12.933 11.2099 13.3023 11.3396 13.6518C11.4649 13.989 11.6743 14.3022 12.0352 14.5406C12.4014 14.7826 13.0033 14.9999 14 14.9999C17.7154 14.9999 20.7124 9.97323 17.7106 6.11387C16.6407 4.73824 14.6094 3.93695 12.4113 4.03818C10.2374 4.1383 8.08493 5.11705 6.79319 7.05466C5.95325 8.31457 5.87675 9.51723 6.12255 10.4265C6.38508 11.3976 6.96936 11.9313 7.33302 12.0472C7.8592 12.215 8.14973 12.7776 7.98194 13.3038C7.81415 13.8299 7.25158 14.1205 6.7254 13.9527C5.5211 13.5687 4.57136 12.3523 4.19185 10.9484C3.79561 9.48265 3.96906 7.6853 5.12909 5.94526C6.83739 3.38281 9.63398 2.16397 12.3193 2.0403Z" fill="#292D32"/>
</svg>
