<svg width="15" height="15" viewBox="0 0 15 15" fill="none" xmlns="http://www.w3.org/2000/svg">
<path d="M0 14.3556C0.0906833 14.2434 0.172269 14.1222 0.273517 14.0205C0.964647 13.3256 1.6593 12.6345 2.35395 11.9428C2.39151 11.9053 2.43612 11.8746 2.47956 11.8388C1.98241 11.2517 1.59972 10.6186 1.38461 9.90254C0.702869 7.63269 1.1736 5.62728 2.82527 3.91618C3.41662 3.30325 4.09865 2.7978 4.82353 2.35033C4.86843 2.32251 4.91509 2.29791 4.98171 2.26013C4.98523 2.32573 4.98993 2.37581 4.98993 2.42588C4.99022 4.67582 4.98963 6.92605 4.99257 9.17599C4.99257 9.28317 4.95911 9.35638 4.88428 9.43047C4.1189 10.1889 3.35704 10.9509 2.59313 11.7109C2.55586 11.7481 2.50685 11.7738 2.43231 11.8268C2.67002 12.0479 2.87663 12.2403 3.09585 12.4442C3.053 12.489 3.01867 12.527 2.98257 12.563C2.26826 13.2761 1.55365 13.9889 0.839041 14.7017C0.512111 15.0276 0.218051 14.9878 0 14.5895C0 14.5116 0 14.4338 0 14.3556Z" fill="#00B6BE"/>
<path d="M3.09209 12.4524C3.91969 11.6257 4.73642 10.8081 5.55756 9.99517C5.59777 9.95534 5.67906 9.94099 5.74127 9.94099C7.45017 9.93806 9.15877 9.93865 10.8677 9.93865C11.4388 9.93865 12.0102 9.93865 12.5813 9.93865H12.7444C12.7412 9.96383 12.7438 9.98023 12.7371 9.99107C12.1795 10.9132 11.5359 11.7678 10.7174 12.4773C9.84022 13.2379 8.8204 13.6918 7.66529 13.8317C5.99043 14.035 4.49929 13.5972 3.18982 12.5382C3.15988 12.5139 3.13171 12.4876 3.0918 12.4524H3.09209Z" fill="#00B6BE"/>
<path d="M8.50953 0.765137C8.51276 0.824585 8.51716 0.86734 8.51716 0.909803C8.51745 2.5023 8.51834 4.09451 8.51423 5.687C8.51423 5.75143 8.48341 5.83226 8.43851 5.87735C7.61356 6.70699 6.78391 7.53223 5.95543 8.35806C5.93548 8.37797 5.91259 8.39525 5.87414 8.42775C5.86974 8.36977 5.86416 8.32906 5.86416 8.28865C5.86387 6.16054 5.86416 4.03242 5.86328 1.9046C5.86328 1.82963 5.86357 1.77136 5.95132 1.72948C6.76894 1.33677 7.61502 1.0205 8.50982 0.76543L8.50953 0.765137Z" fill="#00B6BE"/>
<path d="M6.5 9.05449C6.54813 9.00383 6.57748 8.97132 6.60829 8.94057C7.41593 8.13466 8.22416 7.32992 9.02974 6.52196C9.10047 6.45109 9.1709 6.41975 9.27215 6.42005C10.873 6.42297 12.4739 6.4221 14.0748 6.4221H14.2562C14.1476 6.75711 14.0613 7.07104 13.9442 7.37326C13.7391 7.90302 13.5149 8.42516 13.2992 8.95112C13.2696 9.02316 13.2355 9.0665 13.141 9.06621C10.9543 9.06269 8.76767 9.06357 6.58129 9.06328C6.5631 9.06328 6.5449 9.05947 6.5 9.05478V9.05449Z" fill="#00B6BE"/>
<path d="M10.0491 5.54315C11.6976 3.89824 13.3422 2.25771 14.9892 0.614258C14.9915 0.630072 14.9988 0.656135 14.9991 0.681905C15.0206 2.28875 14.8448 3.87481 14.4988 5.44329C14.4844 5.5086 14.4691 5.55516 14.3802 5.55516C12.9457 5.55194 11.5115 5.55252 10.077 5.55194C10.0682 5.55194 10.0594 5.54667 10.0488 5.54315H10.0491Z" fill="#00B6BE"/>
<path d="M9.38897 4.87585V0.537044C10.9998 0.164544 12.6327 -0.0181924 14.2759 0.00142827C12.6474 1.62585 11.0177 3.25114 9.38867 4.87615L9.38897 4.87585Z" fill="#00B6BE"/>
</svg>
