<svg width="15" height="15" viewBox="0 0 15 15" fill="none" xmlns="http://www.w3.org/2000/svg">
<path d="M5.45001 11.4001C5.45001 12.4218 4.62173 13.2501 3.6 13.2501C2.57828 13.2501 1.75 12.4218 1.75 11.4001C1.75 10.3783 2.57828 9.55005 3.6 9.55005C4.62173 9.55005 5.45001 10.3783 5.45001 11.4001ZM3.6 14.1001C5.09117 14.1001 6.30001 12.8912 6.30001 11.4001C6.30001 9.90888 5.09117 8.70005 3.6 8.70005C2.10883 8.70005 0.9 9.90888 0.9 11.4001C0.9 12.8912 2.10883 14.1001 3.6 14.1001Z" fill="#00B6BE" stroke="#00B6BE" stroke-width="0.2"/>
<path d="M9.35 2.3C9.35 2.60376 9.10376 2.85 8.8 2.85C8.49624 2.85 8.25 2.60376 8.25 2.3C8.25 1.99624 8.49624 1.75 8.8 1.75C9.10376 1.75 9.35 1.99624 9.35 2.3ZM8.8 3.7C9.5732 3.7 10.2 3.0732 10.2 2.3C10.2 1.5268 9.5732 0.9 8.8 0.9C8.0268 0.9 7.4 1.5268 7.4 2.3C7.4 3.0732 8.0268 3.7 8.8 3.7Z" fill="#00B6BE" stroke="#00B6BE" stroke-width="0.2"/>
<path d="M10.434 5.93024L10.4045 5.83468L10.3089 5.86416L9.68781 6.05578L9.59225 6.08526L9.62173 6.18081L10.4517 8.87124C9.42849 9.25516 8.70005 10.2424 8.70005 11.4C8.70005 12.8912 9.90888 14.1 11.4001 14.1C12.8912 14.1 14.1001 12.8912 14.1001 11.4C14.1001 9.90881 12.8912 8.69998 11.4001 8.69998C11.3629 8.69998 11.3259 8.70073 11.2891 8.70222L10.434 5.93024ZM13.2501 11.4C13.2501 12.4217 12.4218 13.25 11.4001 13.25C10.3783 13.25 9.55005 12.4217 9.55005 11.4C9.55005 10.3783 10.3783 9.54998 11.4001 9.54998C12.4218 9.54998 13.2501 10.3783 13.2501 11.4Z" fill="#00B6BE" stroke="#00B6BE" stroke-width="0.2"/>
<path d="M7.3782 5.0825C7.46197 4.97779 7.61817 4.96914 7.71299 5.06396L9.04371 6.39468C9.19114 6.5421 9.39109 6.62493 9.59958 6.62493H11.4C11.6347 6.62493 11.825 6.43465 11.825 6.19993C11.825 5.9652 11.6347 5.77493 11.4 5.77493H9.62604L8.31403 4.46292C7.86098 4.00987 7.11471 4.0512 6.71446 4.55151L5.01102 6.68081C4.61717 7.17312 4.72958 7.8971 5.25415 8.24682L7.34004 9.63742L6.76268 11.9469C6.70576 12.1746 6.8442 12.4053 7.07192 12.4622C7.29963 12.5192 7.53038 12.3807 7.58731 12.153L8.17559 9.79989C8.25616 9.47759 8.12543 9.13943 7.849 8.95515L5.72564 7.53957C5.61585 7.46638 5.59232 7.31485 5.67476 7.21181L7.3782 5.0825ZM7.37751 9.66239C7.37747 9.66237 7.37743 9.66234 7.3774 9.66232L7.37751 9.66239L7.41295 9.60923L7.37751 9.66239Z" fill="#00B6BE" stroke="#00B6BE" stroke-width="0.2" stroke-linecap="round"/>
</svg>
