<svg width="61" height="52" viewBox="0 0 61 52" fill="none" xmlns="http://www.w3.org/2000/svg">
<g clip-path="url(#clip0_280_1819)">
<path d="M58.1418 21.1573C57.0165 20.2051 55.6123 19.6978 54.0808 19.6906C53.452 19.6882 52.7872 19.6858 52.0491 19.6858C51.2099 19.6858 50.3708 19.6882 49.5305 19.6894C48.5411 19.6918 47.8991 20.2532 47.8967 21.1188C47.8943 21.9772 48.5447 22.5566 49.5148 22.559C49.8466 22.559 50.1772 22.5602 50.509 22.5602C50.8565 22.5602 51.2051 22.5602 51.5526 22.5602H51.567C51.9204 22.5602 52.2739 22.5602 52.6273 22.5602C53.0877 22.5602 53.5482 22.5602 54.0074 22.5638C55.9213 22.5735 57.483 24.1375 57.4866 26.0502C57.4938 29.3658 57.4938 32.4254 57.4866 35.4056C57.4842 36.383 57.1343 37.2654 56.5008 37.893C55.8684 38.5193 54.9788 38.8667 53.993 38.8715C53.5097 38.8739 53.0264 38.8752 52.5432 38.8752C52.1837 38.8752 51.823 38.8752 51.4636 38.8752H51.4311C51.0825 38.8752 50.7339 38.8752 50.3852 38.8752C50.1075 38.8752 49.8298 38.8752 49.5521 38.8752C48.4557 38.8776 47.8967 39.4318 47.8931 40.5209C47.8907 41.3132 47.8907 42.1199 47.8919 42.9001V42.9217C47.8919 43.2692 47.8919 43.6166 47.8919 43.9628L47.9123 44.9546C47.9159 45.1458 47.8462 45.3237 47.7152 45.4583C47.5829 45.593 47.3978 45.6711 47.209 45.6711C47.0203 45.6711 46.8376 45.593 46.7029 45.4523L45.9588 44.6685L45.9323 44.6409L45.9119 44.6072C45.8638 44.5291 45.8241 44.4521 45.7917 44.3908C45.776 44.3607 45.7448 44.3006 45.7279 44.273C45.1377 43.6779 44.533 43.0756 43.9475 42.4925C42.9906 41.5392 42.0012 40.5534 41.0406 39.5676C40.5585 39.0735 40.0548 38.8619 39.3551 38.8619H39.3359C37.3162 38.8727 35.1559 38.8776 32.5387 38.8776C30.7487 38.8776 28.9586 38.8752 27.1685 38.8727H27.1553L25.4782 38.8703C24.478 38.8703 23.6112 38.5337 22.9717 37.9002C22.3345 37.2678 21.9919 36.4083 21.9811 35.4116C21.9811 35.3046 21.9811 35.1977 21.9811 35.0919C21.9835 34.9067 21.9847 34.7324 21.9727 34.5749C21.9174 33.8464 21.2994 33.2645 20.5661 33.2501H20.5385C19.8219 33.2501 19.1944 33.8115 19.1102 34.528C18.8866 36.4323 19.4336 38.2368 20.6527 39.6097C21.8729 40.9838 23.6028 41.7412 25.5239 41.7436C27.2839 41.746 29.0439 41.7472 30.8052 41.7472C33.4896 41.7472 35.8796 41.7436 38.1133 41.7364H38.1241C38.8226 41.7364 39.3696 41.96 39.8456 42.4408C41.5996 44.2141 43.3945 46.0065 45.1292 47.7401C45.8938 48.5047 46.6596 49.2693 47.423 50.0339C47.4892 50.1 47.5553 50.1673 47.6214 50.2346C48.0566 50.6747 48.4653 51.0894 48.939 51.3359H49.7072C50.5427 51.1519 50.8974 50.6987 50.9274 49.7826C50.9322 49.6396 50.931 49.4929 50.931 49.3366C50.931 49.2765 50.931 49.2164 50.931 49.1563C50.931 48.5876 50.931 48.019 50.931 47.4504V47.4444C50.931 46.1809 50.9298 44.8741 50.9334 43.5877C50.9346 43.1694 50.937 42.537 51.5249 42.1499C51.7173 42.0225 51.9529 41.9467 52.2053 41.9311C52.4518 41.9155 52.7043 41.9083 53.0252 41.9083C53.1767 41.9083 53.3282 41.9095 53.4797 41.9119C53.6251 41.9131 53.7694 41.9143 53.9149 41.9143C54.2419 41.9143 54.6265 41.9071 55.0028 41.859C57.4252 41.5428 60.0869 39.4726 60.3574 36.5513V25.2171C60.3165 25.1257 60.2877 25.0343 60.2708 24.9382C59.9991 23.4186 59.261 22.1106 58.1357 21.1585L58.1418 21.1573Z" fill="black"/>
<path d="M37.2261 29.2805C36.2138 29.2805 35.2028 29.2805 34.1905 29.2805C32.9102 29.2805 31.6311 29.2805 30.3507 29.2817C29.3589 29.2817 28.7146 29.8407 28.7073 30.7027C28.7037 31.0982 28.8336 31.4396 29.0812 31.6897C29.377 31.9878 29.8326 32.1525 30.3676 32.1525C31.4868 32.1537 32.6061 32.1537 33.7253 32.1537C34.5284 32.1537 35.3314 32.1537 36.1345 32.1537H38.5172H38.5569H41.495H44.4332C46.0165 32.1537 47.601 32.1537 49.1843 32.1513C49.932 32.1513 50.4802 31.8003 50.6894 31.1895C50.8433 30.7375 50.7808 30.2663 50.5163 29.8948C50.2422 29.5101 49.7938 29.2877 49.284 29.2853C48.1275 29.2793 46.876 29.2769 45.3433 29.2769C44.4416 29.2769 43.5412 29.2769 42.6395 29.2781H42.6047C41.691 29.2781 40.7773 29.2793 39.8649 29.2793H39.7591H37.2261V29.2805Z" fill="#39B5BE"/>
<path d="M8.99116 22.5506H9.02722C9.02722 22.5506 9.02843 22.5506 9.02963 22.5506C9.20394 22.5506 9.71968 22.5518 10.1044 22.9401C10.4482 23.2875 10.4879 23.7179 10.4855 24.0545C10.4626 26.412 10.4699 28.7034 10.4795 30.6329C10.4831 31.4324 10.9255 31.9902 11.6624 32.1272C11.7562 32.1441 11.8476 32.1537 11.9341 32.1537C12.3344 32.1537 12.7119 31.9625 13.1207 31.5514C14.1546 30.5139 15.2089 29.4608 16.2271 28.4437L16.2319 28.4389L16.238 28.4329C17.9258 26.7462 19.6702 25.003 21.3761 23.2803C21.8666 22.785 22.4292 22.5542 23.1469 22.5542H23.159C25.4083 22.5626 27.7838 22.5662 30.4214 22.5662C32.0299 22.5662 33.7719 22.565 35.7447 22.5614C37.5155 22.559 39.1373 21.911 40.3094 20.7365C41.4828 19.5619 42.1295 17.9378 42.1331 16.1633C42.1391 12.9787 42.1355 9.66189 42.1331 6.99664C42.1319 5.16209 41.4852 3.50548 40.3118 2.33094C39.1397 1.15399 37.4867 0.507213 35.6557 0.506011C33.9174 0.506011 32.179 0.504809 30.4406 0.504809C28.5953 0.504809 26.7511 0.504809 24.9058 0.504809H24.7326H21.5661H21.3352C19.9167 0.504809 18.4981 0.503607 17.0807 0.501202C15.6645 0.501202 14.2459 0.5 12.8285 0.5C10.572 0.5 8.72187 0.504809 7.00394 0.513224C5.41344 0.521639 3.89507 1.16 2.72654 2.3093C1.56042 3.45739 0.907631 4.95412 0.889598 6.52297C0.853532 9.64386 0.853532 12.9306 0.889598 16.5709C0.90162 17.7286 1.31157 18.9248 2.0437 19.9382C2.77343 20.9469 3.78928 21.7343 4.90491 22.1563C5.85104 22.5145 6.85727 22.5638 7.80219 22.5638C8.07148 22.5638 8.35039 22.559 8.61968 22.5554L8.62569 22.7357H8.6293L8.62689 22.5554C8.74831 22.553 8.86974 22.5518 8.99116 22.5506ZM8.4105 16.8726C8.33596 15.7594 8.35279 14.6438 8.36963 13.5654V13.5582C8.37443 13.242 8.37924 12.9246 8.38165 12.6085C8.38525 12.1985 8.49585 11.8595 8.72066 11.5722L8.75312 11.5313C8.37443 11.0793 8.37323 10.5659 8.37323 10.2882V10.2438C8.37203 9.95403 8.36842 9.6643 8.36602 9.37337C8.3564 8.45489 8.34799 7.50877 8.38405 6.56746C8.45618 4.73051 8.97914 4.10056 9.46242 3.65455L9.62591 3.50307L9.72449 3.41171L9.85794 3.4069L10.0815 3.39968C10.1405 3.39728 10.2006 3.39487 10.2595 3.39247C10.4073 3.38646 10.5552 3.37925 10.7127 3.37925C15.9639 3.37925 21.215 3.37925 26.465 3.37925H35.5259C37.8966 3.37925 39.2575 4.73291 39.2587 7.09281V7.41861V7.45587C39.2587 10.2822 39.2611 13.206 39.2587 16.0804C39.2563 18.2708 37.8449 19.6882 35.6629 19.6894H33.2249L33.2021 19.6906C31.6825 19.6906 30.1629 19.693 28.6434 19.693C25.9817 19.693 23.8118 19.6894 21.8137 19.681H21.8005C21.1657 19.681 20.7053 19.8733 20.2629 20.3241C19.0451 21.566 17.8321 22.779 16.5481 24.0629C16.036 24.5751 15.5178 25.0932 14.9913 25.6222L13.9646 26.6525L13.3491 27.2704V24.9429C13.3491 24.6147 13.3431 24.2962 13.3383 23.9872C13.3263 23.3116 13.3142 22.6732 13.3635 22.0204C13.4296 21.126 13.2938 20.49 12.9584 20.1282C12.6711 19.818 12.1734 19.6617 11.4797 19.6617C11.339 19.6617 11.19 19.6677 11.0361 19.681C10.9435 19.6882 10.8473 19.693 10.7427 19.693C10.5973 19.693 10.4626 19.6858 10.3328 19.6785H10.3244C10.2474 19.6737 10.1717 19.6701 10.0948 19.6677L9.88078 19.6629L9.75214 19.6593L9.65477 19.5752L9.49247 19.4357C8.64493 18.7096 8.47181 17.731 8.4129 16.8702L8.4105 16.8726Z" fill="black"/>
<path d="M11.9273 12.8092C12.1437 12.8092 12.3528 12.7515 12.5512 12.6385C12.996 12.3836 13.2473 11.8799 13.1763 11.3846C13.0934 10.8088 12.7604 10.4337 12.2158 10.3026C12.1124 10.2774 12.0078 10.2654 11.9044 10.2654C11.5017 10.2654 11.1242 10.4565 10.8609 10.7919C10.8549 10.8088 10.8477 10.828 10.8417 10.8436C10.7888 10.9831 10.6758 11.2812 10.4221 11.5229C10.5616 11.6635 10.6866 11.8607 10.7756 12.1372C11.0533 12.5592 11.4812 12.8092 11.9297 12.8092H11.9273Z" fill="black"/>
<path d="M9.48214 12.2069C9.49656 14.7074 8.92793 17.2537 10.1157 19.6617C8.91711 19.6689 7.71732 19.7025 6.51874 19.6761C4.99917 19.6424 3.77774 18.4907 3.76813 17.0301C3.74168 13.3646 3.74168 9.69792 3.76813 6.03123C3.77895 4.56937 4.99917 3.41887 6.51874 3.38642C7.71732 3.36117 8.91591 3.39363 10.1157 3.40084C8.92793 5.80883 9.49656 8.35507 9.48214 10.8556C9.67569 11.3052 9.67689 11.7561 9.48214 12.2057V12.2069Z" fill="#39B5BE"/>
<path d="M9.5781 12.1288C9.49154 11.7321 9.49154 11.3342 9.5781 10.9375C10.0494 9.63309 11.1385 8.93342 12.3275 9.17025C13.5249 9.40828 14.3352 10.3989 14.3075 11.5915C14.2811 12.7492 13.4359 13.7097 12.2698 13.9081C11.0989 14.1076 10.0409 13.408 9.5769 12.1276L9.5781 12.1288Z" fill="#F8A71B"/>
<path d="M21.4919 9.13773C22.8191 9.13052 23.8963 10.1933 23.9035 11.5193C23.9107 12.8441 22.8456 13.9224 21.5208 13.9309C20.1935 13.9381 19.1164 12.8741 19.1092 11.5481C19.102 10.2209 20.1647 9.14494 21.4919 9.13773Z" fill="#F8A71B"/>
<path d="M31.1082 13.9296C29.781 13.9332 28.7075 12.8669 28.7039 11.5409C28.7003 10.2125 29.7654 9.14131 31.0926 9.1377C32.421 9.1341 33.4934 10.1992 33.497 11.5253C33.5006 12.8513 32.4331 13.926 31.107 13.9296H31.1082Z" fill="#F8A71B"/>
</g>
<defs>
<clipPath id="clip0_280_1819">
<rect width="59.5" height="50.8358" fill="white" transform="translate(0.863525 0.5)"/>
</clipPath>
</defs>
</svg>
