<svg width="16" height="16" viewBox="0 0 16 16" fill="none" xmlns="http://www.w3.org/2000/svg">
<path d="M14.6667 5.33325V8.66659C14.6667 11.3333 13.3334 12.6666 10.6667 12.6666H10.3334C10.1267 12.6666 9.92671 12.7666 9.80004 12.9333L8.80004 14.2666C8.36004 14.8533 7.64004 14.8533 7.20004 14.2666L6.20004 12.9333C6.09337 12.7866 5.84671 12.6666 5.66671 12.6666H5.33337C2.66671 12.6666 1.33337 11.9999 1.33337 8.66659V5.33325C1.33337 2.66659 2.66671 1.33325 5.33337 1.33325H8.00004" stroke="black" stroke-miterlimit="10" stroke-linecap="round" stroke-linejoin="round"/>
<path d="M10.1334 3.07997C9.91336 2.41997 10.1734 1.60664 10.8934 1.37997C11.2667 1.26664 11.7334 1.35997 12 1.71331C12.2534 1.34664 12.7334 1.26664 13.1067 1.37997C13.8267 1.59997 14.0867 2.41997 13.8667 3.07997C13.5267 4.12664 12.3334 4.66664 12 4.66664C11.6667 4.66664 10.4867 4.1333 10.1334 3.07997Z" stroke="black" stroke-linecap="round" stroke-linejoin="round"/>
<path d="M10.6643 7.33333H10.6703" stroke="black" stroke-linecap="round" stroke-linejoin="round"/>
<path d="M7.99703 7.33333H8.00302" stroke="black" stroke-linecap="round" stroke-linejoin="round"/>
<path d="M5.32967 7.33333H5.33566" stroke="black" stroke-linecap="round" stroke-linejoin="round"/>
</svg>
