<svg width="24" height="24" viewBox="0 0 24 24" fill="none" xmlns="http://www.w3.org/2000/svg">
<g clip-path="url(#clip0_458_1912)">
<path d="M9.46097 19.06C9.20086 19.0199 8.93809 18.9913 8.68093 18.9376C6.88875 18.5631 5.41654 17.067 5.08329 15.289C4.61497 12.7905 6.16444 10.427 8.65232 9.8487C9.19172 9.72337 9.7379 9.698 10.2879 9.76288C10.3307 9.7679 10.3728 9.78146 10.4197 9.79208V12.267C10.277 12.2416 10.141 12.2127 10.0039 12.1938C8.82249 12.0334 7.71362 12.8503 7.52133 14.0211C7.32787 15.2005 8.10231 16.3265 9.26957 16.5627C10.6377 16.8396 11.9143 15.8345 11.9347 14.4399C11.9536 13.15 11.9433 11.8594 11.9438 10.5689C11.9447 8.44433 11.9438 6.32008 11.9438 4.19553V4H14.3875C14.4223 4.25215 14.4447 4.50489 14.4934 4.75262C14.7992 6.30946 16.1629 7.55841 17.7374 7.73064C17.9017 7.74863 18.0659 7.76633 18.2302 7.78402V10.1982C18.1969 10.2035 18.1633 10.2141 18.1302 10.2135C16.8096 10.1861 15.6117 9.79031 14.5388 9.01764C14.5019 8.9911 14.463 8.96751 14.4084 8.93123C14.4084 9.01705 14.4084 9.07544 14.4084 9.13384C14.4146 10.8355 14.4252 12.5371 14.4235 14.2388C14.4232 14.5652 14.3949 14.8952 14.3427 15.2179C14.0513 17.0222 12.5425 18.5763 10.7409 18.9376C10.4831 18.9892 10.221 19.0196 9.96085 19.0597H9.46068L9.46097 19.06Z" fill="#292D32"/>
</g>
<defs>
<clipPath id="clip0_458_1912">
<rect width="13.2307" height="15.06" fill="white" transform="translate(5 4)"/>
</clipPath>
</defs>
</svg>
