<svg xmlns="http://www.w3.org/2000/svg" width="148.242" height="33" viewBox="0 0 148.242 33"><g data-name="Group 2"><path data-name="Path 1" d="M123.06 26.306a32.607 32.607 0 0 1-9.831-1.732 12.021 12.021 0 0 0 19.66 0 32.6 32.6 0 0 1-9.829 1.732z" fill="#ffc500"/><path data-name="Path 2" d="M98.999 2.714h-3.935l-4.54 6.74-4.587-6.74h-3.885l6.553 9.455-6.553 9.736h3.838l4.634-6.974 4.634 6.974h3.838l-6.553-9.736z" fill="#1861c5"/><path data-name="Path 3" d="M77.982 16.196a5.672 5.672 0 0 1-1.825 1.826 6.48 6.48 0 0 1-3.6 1.029 6.356 6.356 0 0 1-4.4-1.779 5.765 5.765 0 0 1-2.013-3.838h16.055l.047-1.03a9.615 9.615 0 0 0-2.808-6.927 9.107 9.107 0 0 0-6.837-2.949 9.206 9.206 0 0 0-6.787 2.9 9.479 9.479 0 0 0-2.808 6.834 9.668 9.668 0 0 0 9.643 9.643 9.618 9.618 0 0 0 5.57-1.779 9.4 9.4 0 0 0 3.229-3.933zm-9.689-9.174a6.479 6.479 0 0 1 8.613 0 7.268 7.268 0 0 1 2.153 3.65H66.233a5.776 5.776 0 0 1 2.06-3.65z" fill="#1861c5"/><path data-name="Path 4" d="M113.885 16.196a5.682 5.682 0 0 1-1.825 1.826 6.48 6.48 0 0 1-3.6 1.029 6.354 6.354 0 0 1-4.4-1.779 5.761 5.761 0 0 1-2.013-3.838h16.055l.047-1.03a9.612 9.612 0 0 0-2.809-6.927 9.1 9.1 0 0 0-6.834-2.949 9.206 9.206 0 0 0-6.787 2.9 9.479 9.479 0 0 0-2.808 6.834 9.668 9.668 0 0 0 9.642 9.643 9.619 9.619 0 0 0 5.571-1.779 9.4 9.4 0 0 0 3.229-3.933zm-9.736-9.174a6.478 6.478 0 0 1 8.612 0 7.255 7.255 0 0 1 2.153 3.65h-12.871a6.542 6.542 0 0 1 2.106-3.65z" fill="#1861c5"/><path data-name="Path 5" d="M143.982 16.196a5.672 5.672 0 0 1-1.825 1.826 6.48 6.48 0 0 1-3.6 1.029 6.354 6.354 0 0 1-4.4-1.779 5.761 5.761 0 0 1-2.013-3.838h16.051l.047-1.03a9.615 9.615 0 0 0-2.808-6.927 9.107 9.107 0 0 0-6.835-2.949 9.206 9.206 0 0 0-6.787 2.9 9.479 9.479 0 0 0-2.808 6.834 9.668 9.668 0 0 0 9.643 9.643 9.618 9.618 0 0 0 5.57-1.779 9.4 9.4 0 0 0 3.229-3.933zm-9.736-9.174a6.478 6.478 0 0 1 8.612 0 7.263 7.263 0 0 1 2.154 3.65h-12.826a6.228 6.228 0 0 1 2.06-3.65z" fill="#1861c5"/><path data-name="Path 6" d="M129.424 2.481a8.146 8.146 0 0 0-3.23.8 5.5 5.5 0 0 0-1.5 1.264V2.668h-3.183V21.86h3.183V10.906c0-2.809 1.264-4.447 3.792-4.962l1.357-3.417v-.093z" fill="#1861c5"/><path data-name="Path 7" d="M47.417 28.741h5.149l1.5-4.213h-4.072L41.147 2.996h-4.07z" fill="#1861c5"/><path data-name="Path 8" d="M58.744 2.668l-7.63 19.1h4.072l7.63-19.1z" fill="#1861c5"/><path data-name="Path 9" d="M27.1 0H1.685A1.678 1.678 0 0 0 0 1.685v25.464a1.678 1.678 0 0 0 1.685 1.683h1.17v2.106a2.059 2.059 0 1 0 4.118 0v-2.106h14.792v2.106a2.06 2.06 0 0 0 4.119 0v-2.106h1.17a1.678 1.678 0 0 0 1.685-1.685V1.685A1.669 1.669 0 0 0 27.1 0zM14.37 25.51a8.976 8.976 0 0 1-7.3-3.792 23.386 23.386 0 0 0 7.3 1.17 23.609 23.609 0 0 0 7.3-1.17 8.976 8.976 0 0 1-7.3 3.792zM25.978 8.285a2.059 2.059 0 1 0 0 4.118v5.29a.221.221 0 0 1-.234.234H3.089a.221.221 0 0 1-.234-.234v-5.242a2.059 2.059 0 1 0 0-4.118V3.042a.25.25 0 0 1 .234-.234H25.7a.221.221 0 0 1 .234.234v5.243z" fill="#1861c5"/><path data-name="Path 10" d="M14.37 25.511a8.976 8.976 0 0 1-7.3-3.792 23.386 23.386 0 0 0 7.3 1.17 23.609 23.609 0 0 0 7.3-1.17 8.976 8.976 0 0 1-7.3 3.792z" fill="#ffc500"/></g></svg>